<svg width="359" height="255" viewBox="0 0 359 255" fill="none" xmlns="http://www.w3.org/2000/svg">
<path d="M179.5 241.5C240.673 241.5 290.5 196.182 290.5 140C290.5 83.8179 240.673 38.5 179.5 38.5C118.327 38.5 68.5 83.8179 68.5 140C68.5 196.182 118.327 241.5 179.5 241.5Z" fill="#C825C1" stroke="#460850" stroke-width="3"/>
<path d="M304.388 226.372C311.068 228.037 318.03 224.501 323.821 218.183C329.656 211.818 334.596 202.351 337.351 191.304C340.105 180.258 340.187 169.58 338.023 161.22C335.876 152.923 331.389 146.532 324.709 144.867C318.029 143.201 311.068 146.738 305.277 153.055C299.441 159.421 294.501 168.888 291.747 179.934C288.993 190.98 288.91 201.658 291.074 210.019C293.221 218.315 297.708 224.706 304.388 226.372Z" fill="#227DD0" stroke="#143384" stroke-width="3"/>
<path d="M58.3051 226.727C64.9851 225.062 69.4715 218.671 71.6189 210.374C73.7828 202.014 73.7004 191.336 70.9463 180.29C68.1922 169.243 63.2518 159.776 57.4162 153.411C51.6253 147.093 44.6637 143.557 37.9836 145.222C31.3036 146.888 26.8172 153.279 24.6698 161.575C22.5059 169.936 22.5883 180.614 25.3424 191.66C28.0965 202.706 33.0369 212.173 38.8725 218.539C44.6634 224.856 51.625 228.393 58.3051 226.727Z" fill="#227DD0" stroke="#143384" stroke-width="3"/>
<g filter="url(#filter0_d_0_1)">
<path d="M124.001 168L181 9L237.503 168L348 61L294 244H67L11 61L124.001 168Z" fill="#E9C81B"/>
<path d="M179.588 8.49382L123.364 165.331L12.0313 59.9108L7.90132 56.0001L9.56566 61.4389L65.5657 244.439L65.8904 245.5H67H294H295.121L295.439 244.425L349.439 61.4245L351.052 55.9564L346.957 59.9224L238.135 165.3L182.413 8.49773L181.006 4.53775L179.588 8.49382Z" stroke="#CE6B10" stroke-width="3"/>
</g>
<path d="M180 227.5C188.148 227.5 195.309 222.304 200.358 214.356C205.419 206.39 208.5 195.477 208.5 183.5C208.5 171.523 205.419 160.61 200.358 152.644C195.309 144.696 188.148 139.5 180 139.5C171.852 139.5 164.691 144.696 159.642 152.644C154.581 160.61 151.5 171.523 151.5 183.5C151.5 195.477 154.581 206.39 159.642 214.356C164.691 222.304 171.852 227.5 180 227.5Z" fill="#F12626" stroke="#84142F" stroke-width="3"/>
<defs>
<filter id="filter0_d_0_1" x="0.802643" y="0.0755005" width="357.302" height="254.924" filterUnits="userSpaceOnUse" color-interpolation-filters="sRGB">
<feFlood flood-opacity="0" result="BackgroundImageFix"/>
<feColorMatrix in="SourceAlpha" type="matrix" values="0 0 0 0 0 0 0 0 0 0 0 0 0 0 0 0 0 0 127 0" result="hardAlpha"/>
<feOffset dy="4"/>
<feGaussianBlur stdDeviation="2"/>
<feComposite in2="hardAlpha" operator="out"/>
<feColorMatrix type="matrix" values="0 0 0 0 0 0 0 0 0 0 0 0 0 0 0 0 0 0 0.25 0"/>
<feBlend mode="normal" in2="BackgroundImageFix" result="effect1_dropShadow_0_1"/>
<feBlend mode="normal" in="SourceGraphic" in2="effect1_dropShadow_0_1" result="shape"/>
</filter>
</defs>
</svg>
